<svg xmlns="http://www.w3.org/2000/svg" data-name="Layer 1" viewBox="0 0 100 100" x="0px" y="0px"><title>Noun_Project_100Icon_10px_grid</title><path d="M56.19,70.91a1.6,1.6,0,0,1-1.13-1.64c0-1.1,2.69-11.85,2.69-11.85.47-1.54,1.06-1.75,1.88-1.75a2.6,2.6,0,0,1,1.09.3,50.06,50.06,0,0,1-1.5,8A62.59,62.59,0,0,1,57,71,2.23,2.23,0,0,1,56.19,70.91ZM40.37,55.67a2.6,2.6,0,0,0-1.09.3,50.06,50.06,0,0,0,1.5,8A62.59,62.59,0,0,0,43,71a2.23,2.23,0,0,0,.77,0,1.6,1.6,0,0,0,1.13-1.64c0-1.1-2.69-11.85-2.69-11.85C41.78,55.88,41.19,55.67,40.37,55.67Zm30.86-3.29-.12,2.5-2,1.49h0l-4,6.46c0,.47-.08.8-.08.8h0l.89.44-.76,2.7-.88-.15a25.84,25.84,0,0,1-2,3.92,2,2,0,0,1-.92.79c-.41,0-2.52-.42-2.52-.42a1.26,1.26,0,0,1-.78.25.74.74,0,0,1-.41-.14A65.85,65.85,0,0,0,59.8,64.1,49.89,49.89,0,0,0,61.32,56l.07,0a1.56,1.56,0,0,1,.84.59,12.92,12.92,0,0,1,1.59.75,1.66,1.66,0,0,1,.39,1,4.81,4.81,0,0,0,1.54-3.12A4.31,4.31,0,0,0,65,53.08a4.77,4.77,0,0,1-.81-2.46A2.4,2.4,0,0,1,66.4,48a2.77,2.77,0,0,1,2.13,1.13,15.64,15.64,0,0,0-5.66-12.32l-.16.12a1.8,1.8,0,0,1-1.7.1c-1.79-.57-5.34-3.5-11-3.5s-9.22,2.93-11,3.5a1.8,1.8,0,0,1-1.7-.1l-.16-.12a15.64,15.64,0,0,0-5.66,12.32A2.77,2.77,0,0,1,33.6,48a2.4,2.4,0,0,1,2.19,2.6A4.77,4.77,0,0,1,35,53.08a4.31,4.31,0,0,0-.73,2.21,4.79,4.79,0,0,0,1.54,3.12,1.66,1.66,0,0,1,.39-1,12.92,12.92,0,0,1,1.59-.75,1.56,1.56,0,0,1,.84-.59l.07,0A49.89,49.89,0,0,0,40.2,64.1,65.85,65.85,0,0,0,42.42,71a.74.74,0,0,1-.41.14,1.26,1.26,0,0,1-.78-.25s-2.11.42-2.52.42a2,2,0,0,1-.92-.79,25.84,25.84,0,0,1-2-3.92l-.88.15-.76-2.7.89-.44h0s0-.33-.08-.8l-4-6.46h0l-2-1.49-.12-2.5,1.43-1.76.09.72-.09-.72s-.23-2-.23-2.72c0-9.73,7-19.23,20-19.23s20,9.5,20,19.23c0,.75-.23,2.72-.23,2.72h0ZM31.56,50l.9,5.45h0l2.45,5a2.29,2.29,0,0,1,.1-.52c.1-.3.75-.64.75-.64v-.06a5.78,5.78,0,0,1-2.1-3.93,4.82,4.82,0,0,1,.81-2.5,4.29,4.29,0,0,0,.73-2.17,1.81,1.81,0,0,0-1.59-2,2.5,2.5,0,0,0-1.93,1.24A1.71,1.71,0,0,1,31.56,50Zm36,5.45h0l.9-5.45a1.71,1.71,0,0,1-.11-.14,2.5,2.5,0,0,0-1.93-1.24,1.81,1.81,0,0,0-1.59,2,4.29,4.29,0,0,0,.73,2.17,4.82,4.82,0,0,1,.81,2.5,5.78,5.78,0,0,1-2.1,3.93.15.15,0,0,1,0,.06s.65.34.75.64a2.29,2.29,0,0,1,.1.52Z"></path></svg>