<svg xmlns="http://www.w3.org/2000/svg" xmlns:xlink="http://www.w3.org/1999/xlink" version="1.1" x="0px" y="0px" viewBox="0 0 100 100" style="enable-background:new 0 0 100 100;" xml:space="preserve"><g><path d="M56.1,20.1c-1.3-2.2-3.5-3.5-6.1-3.5s-4.8,1.3-6.1,3.5L13.8,73v0c-1.2,2.2-1.2,4.8,0,7c1.3,2.2,3.5,3.5,6.1,3.5h60.2   c2.5,0,4.8-1.3,6.1-3.5c1.3-2.2,1.3-4.8,0-7L56.1,20.1z M81,77c-0.1,0.2-0.4,0.5-0.9,0.5H19.9c-0.5,0-0.8-0.3-0.9-0.5   c-0.1-0.2-0.3-0.6,0-1v0L49.1,23c0.2-0.4,0.7-0.5,0.9-0.5s0.6,0.1,0.9,0.5L81,76C81.2,76.4,81.1,76.8,81,77z"/><rect x="47.4" y="40.9" width="6" height="20"/><rect x="47.4" y="64.9" width="6" height="7"/></g></svg>