<svg xmlns="http://www.w3.org/2000/svg" xmlns:xlink="http://www.w3.org/1999/xlink" version="1.1" x="0px" y="0px" viewBox="0 0 53 53" style="enable-background:new 0 0 53 53;" xml:space="preserve"><g><path d="M45.059082,36.0343132l-6.3360596-3.6588745c-0.0003052-0.1116409-0.0635338-23.2706146-0.0638428-23.1570435   c0.0005531-0.2032413-0.1474304-0.3776598-0.2504883-0.4375c-10.6745186-6.2043428,6.0401077,3.5124846-10.6875-6.2148433   c-0.1542969-0.090332-0.3466797-0.0908203-0.5019531-0.0014648l-12.70996,7.3398433   c-0.1542969,0.0893555-0.25,0.2539063-0.25,0.4326172c0,0.0006104,0.0004883,0.0010986,0.0004883,0.001709   s-0.0004883,0.0010986-0.0004883,0.001709c0,0.0003662,0.0002441,0.0006104,0.0002441,0.0009766   s-0.0002441,0.0006104-0.0002441,0.0009766l0.0620728,21.9918823l-6.3731079,3.7005005   c-0.1542969,0.0898438-0.2490234,0.2548828-0.2490234,0.4331055c0,0.2918701-0.0081749,3.0338364-0.0083008,2.9311523   c-0.0004883,0.1791992,0.0947266,0.3447266,0.25,0.4345703l18.3623047,10.6015663   c0.1539154,0.0886421,0.3432178,0.0895119,0.4995117,0.0004845c0.0005493-0.0003052,0.0007324-0.0009766,0.0012817-0.0012817   c28.1788254-16.375103,14.1769295-8.2384109,18.2438354-10.6017456c0.1533203-0.0888672,0.2480469-0.2529297,0.2485352-0.4306641   l0.0083008-2.918457c0.0001831-0.0059204,0.0043945-0.0106812,0.0043945-0.0166016   C45.3085938,36.2882195,45.2133789,36.1236687,45.059082,36.0343132z M37.1574707,9.21278   c-1.1978378,0.6913557,4.3364296-2.5028529-11.7072754,6.7570801l-9.6904287-5.6291504l11.7094717-6.7609859   C28.7207222,4.3073788,37.7169151,9.5381308,37.1574707,9.21278z M24.9470825,16.83955l0.0743408,26.1807251l-9.6825552-5.6304932   l-0.0097656-4.7729492c0-0.0094604-0.0066528-0.0171509-0.0072021-0.0265503l-0.0601807-21.3790894L24.9470825,16.83955z    M26.0214844,43.0212517l-0.0742188-26.1816406c15.8308487-9.1327496,10.6316795-6.1333704,11.7124023-6.7568359   l0.0742188,26.1824951C36.535881,36.9563103,42.0730324,33.762352,26.0214844,43.0212517z M14.3245859,33.4892082   l0.0118408,4.1935425c0.0004883,0.1777344,0.0952148,0.3417969,0.2490234,0.4306641   c5.6519232,3.2846222,10.9105825,6.3395538,10.6889639,6.2119141c0.152071,0.0875854,0.3430157,0.0896454,0.4995117-0.0004883   c1.3000889-0.749897-4.7096348,2.7165413,12.7148438-7.3339844c0.1552734-0.0893555,0.2509766-0.2553711,0.2504883-0.4345703   l-0.0078125-3.0209961l5.0805664,2.9335938C20.1658363,50.2124023,28.3277664,45.4685631,26.560791,46.4955559   c-1.7762642-1.0259361,6.4329262,3.7155304-17.3640137-10.0291138L14.3245859,33.4892082z M8.6967783,37.3370476   C32.4921684,51.0824966,24.2851086,46.3416748,26.0605469,47.36726l-0.0048828,1.7700806L8.6918955,39.1124382   L8.6967783,37.3370476z M44.2973633,39.1124382L27.0556641,49.1319695l0.0050659-1.7675171   c1.7886696-1.0397568-6.4235554,3.734024,17.2415161-10.022522L44.2973633,39.1124382z"></path><path d="M19.6381836,30.617321l3.1098633,1.8066406c0.1556835,0.0910606,0.3470612,0.0896263,0.5009766,0.0009766   c0.1552734-0.0898438,0.2504883-0.2553711,0.25-0.4345703l-0.0229492-7.9443359   c-0.0004883-0.1777344-0.0952148-0.3417969-0.2485352-0.4306641l-3.109375-1.8066406   c-0.1547852-0.0908203-0.3461914-0.0898438-0.5009766-0.0009766c-0.1552734,0.0898438-0.2504883,0.2553711-0.25,0.4345703   l0.0219727,7.9443359C19.3896484,30.3643913,19.484375,30.5284538,19.6381836,30.617321z M22.4770508,24.3355827   l0.0195313,6.7861328l-2.1083984-1.2246094l-0.0185547-6.7861328L22.4770508,24.3355827z"></path><path d="M27.7119141,22.304821c0.152071,0.0875854,0.3430157,0.0896454,0.4995117-0.0004883l7.7192383-4.456543   c0.1552734-0.0898438,0.2504883-0.2553711,0.25-0.4345703l-0.0112305-3.8789063   c-0.0004883-0.1782227-0.0961914-0.3427734-0.2504883-0.4321289c-0.1547852-0.0888672-0.3457031-0.0883789-0.4995117,0.0004883   l-7.7192383,4.456543c-0.1552734,0.0898438-0.2504883,0.2553711-0.25,0.4345703l0.0112305,3.8789063   C27.4619141,22.0509148,27.5576172,22.2154655,27.7119141,22.304821z M35.171875,14.4005241l0.0078125,2.7260742   l-6.7207031,3.8798828l-0.0078125-2.7260742L35.171875,14.4005241z"></path><path d="M31.5913086,27.4288445c-2.543457,1.4624023-4.5288086,4.8867188-4.5200195,7.7949219   c0,3.1121407,2.3227596,4.4520378,5.0439453,2.8789063c2.5292969-1.4609375,4.503418-4.8925781,4.4946289-7.8129883   C36.6006737,27.1819611,34.246151,25.8873577,31.5913086,27.4288445z M31.6147461,37.2369499   c-2.0451527,1.1808624-3.543457,0.3299408-3.543457-2.0146484c-0.0078125-2.5410156,1.7949219-5.6479492,4.0195313-6.9272461   c1.9978409-1.1563835,3.511898-0.330698,3.519043,1.9975586C35.6176758,32.8448601,33.8256836,35.9600945,31.6147461,37.2369499z"></path><path d="M31.5893555,30.683239c-0.9487305,0.5478516-1.6894531,1.8291016-1.6860352,2.9165039   c0.003067,1.2952118,1.0599537,1.911438,2.1953125,1.2553711c0.9428711-0.5439453,1.6791992-1.8251953,1.6762695-2.9165039   C33.7718391,30.6494083,32.7154541,30.033884,31.5893555,30.683239z M31.5986328,33.988903   c-0.4557285,0.2648163-0.6942558,0.1377182-0.6953125-0.3920898c-0.0024414-0.7373047,0.5405273-1.6748047,1.1860352-2.0473633   c0.4242134-0.2442417,0.6844406-0.1589565,0.6855469,0.3920898C32.7768555,32.6822624,32.2382813,33.6197624,31.5986328,33.988903z   "></path><path d="M31.5649414,21.4967155c-1.0512695,0.6064453-1.871582,2.0224609-1.8681641,3.2236328   c0.0040989,1.4129524,1.1437244,2.071907,2.378418,1.359375c1.0444336-0.6030273,1.8598633-2.0214844,1.8564453-3.2299805   C33.9275322,21.4463348,32.7837105,20.7936993,31.5649414,21.4967155z M31.5751953,25.2135124   c-0.5556812,0.3226223-0.8763237,0.1525936-0.878418-0.4960938c-0.0024414-0.847168,0.6240234-1.925293,1.3681641-2.3544922   c0.5341454-0.3084507,0.8645668-0.1572742,0.8666992,0.4897461C32.934082,23.7066765,32.3129883,24.7877312,31.5751953,25.2135124z   "></path></g></svg>