<svg xmlns="http://www.w3.org/2000/svg" data-name="Layer 1" viewBox="0 0 100 100" x="0px" y="0px"><title>Noun_Project_100Icon_10px_grid</title><path d="M4.7,14.7V85.3H95.3V14.7Zm90,70H5.3V15.3H94.7ZM40.6,83.4A33.56,33.56,0,0,0,74.16,49.84a34,34,0,0,0-.82-7.4h0a12.05,12.05,0,0,0,5.94,2.24L80,48.56l0,.27c.38,2.2.78,4.55,1,5.65.7,4.14.41,6.77-1,8.81L77.44,67l-.16-.11L76,68.85l-.15-.11-3.4,5-.61-.09L69.55,77l1.66,1.14,1.21.83.45.31,2.28-3.33-.3-.54.22-.31,3.66,2.51L79,77.2l-3.54-2.68,2.82-4.12-.17-.12,1.31-2-.11-.07,2.55-3.72C83.56,62,84,58.88,83.14,54.11c-.18-1.08-.57-3.34-1-5.51l-.07-.43c-.24-1.34-.46-2.61-.61-3.49A12.11,12.11,0,0,0,84.74,21.3l0-.28-1.48-.22.1-1.21-3.62-.27-.1,1.2H78.15l0,.21a12.13,12.13,0,0,0-9.72,10.33A33.56,33.56,0,1,0,40.6,83.4ZM78.51,34.6a2.73,2.73,0,0,1-.84-2,2.82,2.82,0,0,1,.08-.65l.91.71Zm2.74-.87a1.34,1.34,0,0,0,.51-.64L84,34.86l-.51.64Zm-.63-.38h-.21a.73.73,0,0,1-.4-.18h0l-.07-.06,0,0,0-.07,0,0a1.07,1.07,0,0,1-.07-.19h0a.88.88,0,0,1,0-.17.75.75,0,0,1,.74-.75h.16l.06,0h.08l0,0,0,0h0l0,0,0,0,0,0,0,0,0,0,0,.07,0,0,0,.09,0,.07s0,0,0,0a.61.61,0,0,1,0,.14v.06h0a.75.75,0,0,1-.51.64A.2.2,0,0,1,80.62,33.35ZM78.47,22.68l5.65.43L84,25.23l-5.65-.43Zm3.7,4.8-.37,4.8a1.34,1.34,0,0,0-1.07-1l-1.27-1,.25-3Zm1,5.95-.8-.63.16-2.09a2.78,2.78,0,0,1,.76,1.91A3.11,3.11,0,0,1,83.16,33.43Zm-3.25-2a1.34,1.34,0,0,0-.73.92l-3.54-2.79.72-.92Zm-.68,1.72,0,0A1.35,1.35,0,0,0,80.5,34h.07l1,.82-.13,1.66-.61,2.05-1.66-.08-.25-2ZM74,74.62a.67.67,0,0,1-.65-.69.66.66,0,0,1,.69-.64.67.67,0,1,1,0,1.33Zm1-1.49a.71.71,0,1,1,.73-.68A.7.7,0,0,1,75.06,73.13Zm1.1-1.56a.75.75,0,0,1,0-1.49.75.75,0,0,1,0,1.49Zm1.43-1.63-.13-.09h0l-.67-.45-.31-.21,1-1.44.16.11.84.56.12.08Zm4-21.23c.37,2.16.77,4.42,1,5.5.78,4.6.41,7.59-1.22,10l-2.55,3.73-.84-.57,2.56-3.74c1.47-2.17,1.79-4.94,1.06-9.24-.18-1.1-.59-3.45-1-5.65l0-.27c-.31-1.79-.6-3.46-.73-4.23a44.78,44.78,0,0,1-.24-5.2l1,0a45.08,45.08,0,0,0,.23,5c.13.77.42,2.43.73,4.22Zm5.77-17.5a2.6,2.6,0,1,1-.53,4.4,7,7,0,0,1-5.67,4V39.1h.14l.75-2.53.08-1,.27-.17,1.19.94,1.25-1.59-1.19-.94A3.39,3.39,0,0,0,82.58,30l.2-2.59,1.54-.62A7,7,0,0,1,87.37,31.21ZM82.73,20.14l0,.58-2.43-.18,0-.58Zm-5,6v.09l1.41.83-.2,2.54-.2.11-2.46-1.94L74.8,29.64l2.45,1.93a3.31,3.31,0,0,0-.18,1,3.41,3.41,0,0,0,1.37,2.72l-.08,1.08v0L78.68,39,79,39v.49a7,7,0,0,1-1.25-13.34ZM73.16,41.71v0ZM73,41l0-.09Zm-.21-.74a.5.5,0,0,1,0-.13A.5.5,0,0,0,72.76,40.23Zm-.23-.74a.88.88,0,0,1,0-.15A.88.88,0,0,0,72.53,39.49Zm-.25-.74-.06-.17ZM72,38c0-.07-.05-.13-.07-.2S72,38,72,38Zm-3.16-6.3-.19-.29Zm2.88,5.57-.09-.21Zm-.3-.72a2.29,2.29,0,0,1-.1-.23A2.29,2.29,0,0,0,71.43,36.57Zm-.32-.72L71,35.61Zm-.34-.7-.12-.26Zm-.35-.71-.14-.26Zm-.37-.69-.15-.28Zm-.38-.68c-.06-.1-.12-.19-.17-.29C69.55,32.88,69.61,33,69.67,33.07Zm-.41-.68c-.05-.1-.12-.19-.18-.29C69.14,32.2,69.21,32.29,69.26,32.39Zm-52-5.85a32.94,32.94,0,1,1-9.66,23.3A32.75,32.75,0,0,1,17.3,26.54ZM12.24,26A4.21,4.21,0,1,0,8,21.78,4.22,4.22,0,0,0,12.24,26Zm0-7.82a3.61,3.61,0,1,1-3.62,3.61A3.61,3.61,0,0,1,12.24,18.17ZM7,70.93A2.67,2.67,0,1,1,9.71,73.6,2.68,2.68,0,0,1,7,70.93Zm4.28-49.15a.92.92,0,1,1,.92.91A.91.91,0,0,1,11.32,21.78ZM16,76.34H6.74v6.8H16Zm-.6,6.2h-8v-5.6h8Zm1.17.6H26.85v-2H16.54ZM22,81.74h4.25v.8H22Zm-4.86,0H21.4v.8H17.14ZM86.68,61.81V76.68h4.37V51.52H86.68Zm.6-9.69h3.17v9.69H89.16V53.16a.3.3,0,1,0-.6,0v8.65H87.28Zm0,10.29h3.17V63H87.28Zm2.87,1.23v.71H87.58v-.71ZM87.28,65h3.17v.63H87.28Zm0,1.23h1.28V75a.3.3,0,1,0,.6,0V66.18h1.29v9.9H87.28ZM59.51,80H56.45a1.45,1.45,0,1,0,0,2.9h3.06a1.45,1.45,0,1,0,0-2.9Zm-3.06,2.3a.85.85,0,1,1,0-1.7h.31a.88.88,0,0,0,0,1.7Zm3.06,0H57.27a.89.89,0,0,0,0-1.7h2.24a.85.85,0,1,1,0,1.7Zm.22-.85a.58.58,0,1,1-1.15,0,.58.58,0,0,1,1.15,0ZM86.45,33.57a2,2,0,1,1,2,2A2,2,0,0,1,86.45,33.57ZM40.6,80.21A30.37,30.37,0,1,0,10.24,49.84,30.4,30.4,0,0,0,40.6,80.21Zm0-31.37a1,1,0,1,1-1,1A1,1,0,0,1,40.6,48.84Z"></path></svg>