<svg xmlns="http://www.w3.org/2000/svg" xmlns:xlink="http://www.w3.org/1999/xlink" xmlns:a="http://ns.adobe.com/AdobeSVGViewerExtensions/3.0/" version="1.1" x="0px" y="0px" viewBox="-2.332 -2.167 100 100" enable-background="new -2.332 -2.167 100 100" xml:space="preserve"><polygon points="58.998,19.94 52.983,8.703 40.955,8.703 35.002,20.056 47,19.998 "></polygon><rect x="40.919" width="12.161" height="6.627"></rect><polygon points="18.294,32.756 7.984,39.31 7.984,52.421 18.401,58.909 18.348,45.833 "></polygon><rect y="39.205" width="6.08" height="13.253"></rect><polygon points="75.651,45.833 75.598,58.909 86.015,52.421 86.015,39.31 75.706,32.756 "></polygon><rect x="87.919" y="39.205" width="6.08" height="13.253"></rect><polygon points="35.002,74.894 41.016,86.132 53.045,86.132 58.998,74.777 47,74.835 "></polygon><rect x="40.919" y="88.205" width="12.161" height="6.628"></rect><path d="M30.029,36.574l-0.44-0.089l-1.223-0.246c-1.848,3.306-2.907,7.146-2.907,11.244c0,4.431,1.237,8.559,3.37,12.035  l1.624-0.325l0.06-0.015c-2.151-3.337-3.409-7.362-3.409-11.695C27.104,43.484,28.174,39.75,30.029,36.574z"></path><path d="M64.341,36.128l-0.572,0.115c1.976,3.246,3.121,7.101,3.121,11.24c0,4.07-1.109,7.869-3.027,11.08l1.343,0.271l0.33,0.066  c1.907-3.343,3.004-7.247,3.004-11.417c0-4.237-1.131-8.199-3.096-11.577L64.341,36.128z"></path><path d="M58.313,66.549l-0.499-1.533c-3.113,2.122-6.828,3.356-10.816,3.356c-3.374,0-6.55-0.883-9.333-2.438l-0.486,1.49  c2.945,1.573,6.284,2.461,9.821,2.461C51.15,69.885,55.024,68.664,58.313,66.549z"></path><path d="M57.591,27.972C54.464,26.13,50.85,25.08,47,25.08c-3.914,0-7.583,1.086-10.747,2.984l0.493,1.514  c2.994-1.895,6.502-2.985,10.252-2.985c3.688,0,7.142,1.055,10.103,2.892L57.591,27.972z"></path><path d="M32.129,37.645l-0.385-0.079l-1.073-0.215c-1.618,2.893-2.547,6.255-2.547,9.843c0,3.878,1.084,7.494,2.954,10.537  l1.422-0.286l0.052-0.011c-1.885-2.922-2.986-6.446-2.986-10.24C29.567,43.693,30.504,40.423,32.129,37.645z"></path><path d="M63.162,37.059l-0.966,0.195l-0.502,0.102c1.731,2.84,2.735,6.216,2.735,9.839c0,3.564-0.973,6.887-2.653,9.701l1.177,0.236  l0.288,0.059c1.673-2.927,2.634-6.345,2.634-9.996C65.875,43.484,64.882,40.017,63.162,37.059z"></path><path d="M56.913,63.885l-0.438-1.341c-2.729,1.857-5.981,2.938-9.478,2.938c-2.956,0-5.739-0.774-8.178-2.137l-0.425,1.307  c2.581,1.376,5.506,2.154,8.605,2.154C50.635,66.807,54.032,65.736,56.913,63.885z"></path><path d="M56.28,30.114c-2.739-1.612-5.906-2.532-9.28-2.532c-3.429,0-6.645,0.95-9.416,2.612l0.431,1.325  c2.624-1.658,5.697-2.613,8.983-2.613c3.232,0,6.257,0.924,8.852,2.531L56.28,30.114z"></path><path d="M34.093,38.676l-0.334-0.069l-0.929-0.19c-1.402,2.554-2.206,5.521-2.206,8.687c0,3.423,0.939,6.614,2.559,9.299  l1.233-0.253l0.045-0.009c-1.634-2.578-2.588-5.689-2.588-9.038C31.873,44.013,32.685,41.128,34.093,38.676z"></path><path d="M60.983,38.159l-0.838,0.172l-0.435,0.088c1.5,2.507,2.37,5.488,2.37,8.684c0,3.144-0.844,6.081-2.3,8.562l1.021,0.208  l0.251,0.053c1.448-2.585,2.281-5.601,2.281-8.823C63.333,43.829,62.474,40.769,60.983,38.159z"></path><path d="M55.568,61.833l-0.379-1.183c-2.363,1.641-5.184,2.594-8.212,2.594c-2.562,0-4.973-0.683-7.087-1.884l-0.369,1.151  c2.236,1.216,4.771,1.899,7.457,1.899C50.129,64.411,53.071,63.468,55.568,61.833z"></path><path d="M55.019,32.028c-2.374-1.42-5.116-2.234-8.041-2.234c-2.971,0-5.758,0.839-8.159,2.306l0.374,1.169  c2.274-1.463,4.937-2.306,7.785-2.306c2.799,0,5.422,0.815,7.671,2.235L55.019,32.028z"></path><path d="M35.173,55.168l1.042-0.22l0.038-0.009c-1.382-2.255-2.189-4.975-2.189-7.903c0-2.702,0.688-5.226,1.878-7.372l-0.282-0.06  l-0.786-0.166c-1.187,2.233-1.866,4.828-1.866,7.597C33.008,50.03,33.802,52.82,35.173,55.168z"></path><path d="M58.746,54.752c1.227-2.26,1.931-4.897,1.931-7.716c0-2.864-0.728-5.54-1.989-7.823l-0.708,0.151l-0.367,0.077  c1.269,2.193,2.005,4.799,2.005,7.595c0,2.75-0.714,5.317-1.945,7.486l0.862,0.184L58.746,54.752z"></path><path d="M54.108,59.919l-0.32-1.034c-2.001,1.433-4.386,2.267-6.946,2.267c-2.168,0-4.207-0.597-5.995-1.648l-0.312,1.009  c1.891,1.062,4.035,1.662,6.308,1.662C49.506,62.174,51.996,61.348,54.108,59.919z"></path><path d="M53.327,34.874l0.317-1.021c-2.008-1.244-4.328-1.955-6.802-1.955c-2.514,0-4.871,0.735-6.902,2.016l0.316,1.024  c1.923-1.28,4.175-2.018,6.585-2.018C49.209,32.92,51.426,33.633,53.327,34.874z"></path></svg>