<svg xmlns:x="http://ns.adobe.com/Extensibility/1.0/" xmlns:i="http://ns.adobe.com/AdobeIllustrator/10.0/" xmlns:graph="http://ns.adobe.com/Graphs/1.0/" xmlns="http://www.w3.org/2000/svg" xmlns:xlink="http://www.w3.org/1999/xlink" version="1.1" x="0px" y="0px" viewBox="0 0 64 64" enable-background="new 0 0 64 64" xml:space="preserve"><metadata><sfw xmlns="http://ns.adobe.com/SaveForWeb/1.0/"><slices></slices><sliceSourceBounds height="16384" width="16389" x="-8165" y="-8160" bottomLeftOrigin="true"></sliceSourceBounds></sfw></metadata><g><g><path d="M56,7H8C6.896,7,6,7.896,6,9v44c0,1.104,0.896,2,2,2h6c0,1.104,0.896,2,2,2s2-0.896,2-2h28c0,1.104,0.896,2,2,2    s2-0.896,2-2h6c1.104,0,2-0.896,2-2V9C58,7.896,57.104,7,56,7z M54,51H10V11h44V51z"></path><path d="M32,49c9.925,0,18-8.075,18-18c0-9.925-8.075-18-18-18c-9.925,0-18,8.075-18,18C14,40.925,22.075,49,32,49z M32,17    c7.72,0,14,6.28,14,14s-6.28,14-14,14s-14-6.28-14-14S24.28,17,32,17z"></path><path d="M32,37c3.309,0,6-2.691,6-6s-2.691-6-6-6s-6,2.691-6,6S28.691,37,32,37z M32,29c1.103,0,2,0.897,2,2s-0.897,2-2,2    c-1.103,0-2-0.897-2-2S30.897,29,32,29z"></path></g></g></svg>