<svg xmlns="http://www.w3.org/2000/svg" viewBox="0 0 60 60" x="0px" y="0px"><title>008 - Switcher</title><path d="M55,57V56H5v1a1,1,0,0,0,1,1H54A1,1,0,0,0,55,57Z"></path><path d="M24,45V44H22v1a1,1,0,0,1-1,1H20v4h6V46H25A1,1,0,0,1,24,45Z"></path><path d="M10,45V44H8v1a1,1,0,0,1-1,1H6v4h6V46H11A1,1,0,0,1,10,45Z"></path><path d="M38,45V44H36v1a1,1,0,0,1-1,1H34v4h6V46H39A1,1,0,0,1,38,45Z"></path><path d="M52,45V44H50v1a1,1,0,0,1-1,1H48v4h6V46H53A1,1,0,0,1,52,45Z"></path><path d="M57,40H3a1,1,0,0,0-1,1V53a1,1,0,0,0,1,1H57a1,1,0,0,0,1-1V41A1,1,0,0,0,57,40ZM14,50a2,2,0,0,1-2,2H6a2,2,0,0,1-2-2V46a2,2,0,0,1,2-2,2,2,0,0,1,2-2h2a2,2,0,0,1,2,2,2,2,0,0,1,2,2Zm14,0a2,2,0,0,1-2,2H20a2,2,0,0,1-2-2V46a2,2,0,0,1,2-2,2,2,0,0,1,2-2h2a2,2,0,0,1,2,2,2,2,0,0,1,2,2Zm14,0a2,2,0,0,1-2,2H34a2,2,0,0,1-2-2V46a2,2,0,0,1,2-2,2,2,0,0,1,2-2h2a2,2,0,0,1,2,2,2,2,0,0,1,2,2Zm14,0a2,2,0,0,1-2,2H48a2,2,0,0,1-2-2V46a2,2,0,0,1,2-2,2,2,0,0,1,2-2h2a2,2,0,0,1,2,2,2,2,0,0,1,2,2Z"></path><circle cx="30" cy="18" r="2"></circle><path d="M7,26H50l-1.6,1.2a1,1,0,1,0,1.2,1.6l4-3a1,1,0,0,0,0-1.6l-4-3a1,1,0,0,0-1.2,1.6L50,24H7a1,1,0,0,0,0,2Z"></path><path d="M10.4,35.8a1,1,0,0,0,1.2-1.6L10,33H53a1,1,0,0,0,0-2H10l1.6-1.2a1,1,0,1,0-1.2-1.6l-4,3a1,1,0,0,0,0,1.6Z"></path><path d="M33.228,13.635a1,1,0,1,0,1.544-1.27,6,6,0,0,0-9.544,0,1,1,0,1,0,1.544,1.27,4,4,0,0,1,6.456,0Z"></path><path d="M37,10a1,1,0,0,0,.719-1.7,10.667,10.667,0,0,0-15.438,0A1,1,0,0,0,23.719,9.7a8.667,8.667,0,0,1,12.562,0A1,1,0,0,0,37,10Z"></path><path d="M20.693,5.721a13.5,13.5,0,0,1,18.614,0,1,1,0,1,0,1.386-1.442,15.5,15.5,0,0,0-21.386,0,1,1,0,0,0,1.386,1.442Z"></path></svg>