<svg xmlns="http://www.w3.org/2000/svg" viewBox="0 0 60 60" x="0px" y="0px"><title>Office Equipment -083 - Network Switch</title><path d="M34,32.5v-1H33v6h7v-6H39v1a.99974.99974,0,0,1-1,1H35A.99974.99974,0,0,1,34,32.5Z"></path><path d="M47,32.5v-1H46v6h7v-6H52v1a.99974.99974,0,0,1-1,1H48A.99974.99974,0,0,1,47,32.5Z"></path><path d="M8,32.5v-1H7v6h7v-6H13v1a.99974.99974,0,0,1-1,1H9A.99974.99974,0,0,1,8,32.5Z"></path><path d="M21,32.5v-1H20v6h7v-6H26v1a.99974.99974,0,0,1-1,1H22A.99974.99974,0,0,1,21,32.5Z"></path><path d="M59.96,22.24a.49322.49322,0,0,0-.04-.13.94735.94735,0,0,0-.17-.27L59.69,21.78l-7.35-8.27A2.98013,2.98013,0,0,0,50.1,12.5H9.9A2.98013,2.98013,0,0,0,7.66,13.51L.31,21.78.25,21.84a.94735.94735,0,0,0-.17.27.49322.49322,0,0,0-.04.13A.74641.74641,0,0,0,0,22.5v22a3.00887,3.00887,0,0,0,3,3H57a3.00887,3.00887,0,0,0,3-3v-22A.74641.74641,0,0,0,59.96,22.24ZM58,43.5H2v-2H58Zm-47-12v-1a.99974.99974,0,0,1,1-1h3a.99974.99974,0,0,1,1,1v8a.99974.99974,0,0,1-1,1H6a.99974.99974,0,0,1-1-1v-8a.99974.99974,0,0,1,1-1H9a.99974.99974,0,0,1,1,1v1Zm13,0v-1a.99974.99974,0,0,1,1-1h3a.99974.99974,0,0,1,1,1v8a.99974.99974,0,0,1-1,1H19a.99974.99974,0,0,1-1-1v-8a.99974.99974,0,0,1,1-1h3a.99974.99974,0,0,1,1,1v1Zm13,0v-1a.99974.99974,0,0,1,1-1h3a.99974.99974,0,0,1,1,1v8a.99974.99974,0,0,1-1,1H32a.99974.99974,0,0,1-1-1v-8a.99974.99974,0,0,1,1-1h3a.99974.99974,0,0,1,1,1v1Zm13,0v-1a.99974.99974,0,0,1,1-1h3a.99974.99974,0,0,1,1,1v8a.99974.99974,0,0,1-1,1H45a.99974.99974,0,0,1-1-1v-8a.99974.99974,0,0,1,1-1h3a.99974.99974,0,0,1,1,1v1Zm8-4H2v-2H58Z"></path></svg>