<svg xmlns="http://www.w3.org/2000/svg" viewBox="0 0 100 100" x="0px" y="0px"><title>Artboard 64</title><g data-name="Layer 1"><path d="M6,54.5332H7.71338l4.9375,4.10156a.50035.50035,0,0,0,.81934-.38477V50.49939a.70464.70464,0,0,0,0-.99878V41.75a.50035.50035,0,0,0-.81934-.38477L7.71338,45.4668H6a.49971.49971,0,0,0-.5.5V54.0332A.49971.49971,0,0,0,6,54.5332Zm.5-8.06641H7.894a.50155.50155,0,0,0,.31934-.11523l4.25684-3.53613V57.18457L8.21338,53.64844A.50155.50155,0,0,0,7.894,53.5332H6.5Z"></path><path d="M15.18408,53.81836a.50026.50026,0,0,0,.49219.87109,5.24262,5.24262,0,0,0,1.98-1.97656,5.3869,5.3869,0,0,0,.00439-5.418,5.25026,5.25026,0,0,0-1.98437-1.98437.50026.50026,0,0,0-.49219.87109,4.25583,4.25583,0,0,1,1.61084,1.61328,4.38888,4.38888,0,0,1-.00439,4.418A4.24807,4.24807,0,0,1,15.18408,53.81836Z"></path><path d="M17.30322,41.5a.49941.49941,0,0,0,.18213.68262,9.0268,9.0268,0,0,1,0,15.63477.4999.4999,0,1,0,.501.86523,10.02727,10.02727,0,0,0,0-17.36523A.49829.49829,0,0,0,17.30322,41.5Z"></path><path d="M94,45.4668H92.28662l-4.9375-4.10156a.50035.50035,0,0,0-.81934.38477v7.75061a.70442.70442,0,0,0,0,.9986V58.25a.49881.49881,0,0,0,.2876.45215.49826.49826,0,0,0,.53174-.06738l4.9375-4.10156H94a.49971.49971,0,0,0,.5-.5V45.9668A.49971.49971,0,0,0,94,45.4668Zm-.5,8.06641H92.106a.50155.50155,0,0,0-.31934.11523l-4.25684,3.53613V42.81543l4.25684,3.53613a.50155.50155,0,0,0,.31934.11523H93.5Z"></path><path d="M84.81592,46.18164a.50026.50026,0,0,0-.49219-.87109,5.24262,5.24262,0,0,0-1.98,1.97656,5.3869,5.3869,0,0,0-.00439,5.418,5.25026,5.25026,0,0,0,1.98438,1.98438.50026.50026,0,0,0,.49219-.87109,4.25583,4.25583,0,0,1-1.61084-1.61328,4.38888,4.38888,0,0,1,.00439-4.418A4.24807,4.24807,0,0,1,84.81592,46.18164Z"></path><path d="M78.34619,55.01465a10.0724,10.0724,0,0,0,3.66748,3.668.4999.4999,0,0,0,.501-.86523,9.0268,9.0268,0,0,1,0-15.63477.4999.4999,0,0,0-.501-.86523,10.02125,10.02125,0,0,0-3.66748,13.69727Z"></path><path d="M29.4668,92.28613V94a.49971.49971,0,0,0,.5.5H38.0332a.49971.49971,0,0,0,.5-.5V92.28613l4.10156-4.93652a.49987.49987,0,0,0-.38477-.81934H34.49969a.70421.70421,0,0,0-.99939,0H25.75a.49987.49987,0,0,0-.38477.81934Zm11.71777-4.75586-3.53613,4.25586a.50056.50056,0,0,0-.11523.31934V93.5H30.4668V92.10547a.50056.50056,0,0,0-.11523-.31934l-3.53613-4.25586Z"></path><path d="M36.71289,82.34375a5.48648,5.48648,0,0,0-5.41846-.00488,5.25585,5.25585,0,0,0-1.98389,1.98438.50026.50026,0,0,0,.87109.49219,4.25458,4.25458,0,0,1,1.61328-1.61035A4.45117,4.45117,0,0,1,36.2124,83.21a4.24,4.24,0,0,1,1.606,1.60547.50182.50182,0,0,0,.436.25391.49984.49984,0,0,0,.43506-.74609A5.24133,5.24133,0,0,0,36.71289,82.34375Z"></path><path d="M25.49951,82.69727a.50022.50022,0,0,0,.68311-.18262,9.02689,9.02689,0,0,1,15.63477,0,.49966.49966,0,1,0,.86523-.5,10.06893,10.06893,0,0,0-3.668-3.66895,10.17662,10.17662,0,0,0-10.0293,0,10.06893,10.06893,0,0,0-3.668,3.66895A.49918.49918,0,0,0,25.49951,82.69727Z"></path><path d="M25.29736,13.18262a.501.501,0,0,0,.45264.28711h7.75031a.7037.7037,0,0,0,.999,0H42.25a.49987.49987,0,0,0,.38477-.81934L38.5332,7.71387V6a.49971.49971,0,0,0-.5-.5H29.9668a.49971.49971,0,0,0-.5.5V7.71387l-4.10156,4.93652A.50062.50062,0,0,0,25.29736,13.18262Zm5.0542-4.96875a.50056.50056,0,0,0,.11523-.31934V6.5H37.5332V7.89453a.50056.50056,0,0,0,.11523.31934l3.53613,4.25586H26.81543Z"></path><path d="M31.28711,17.65625a5.38625,5.38625,0,0,0,5.41846.00488,5.25585,5.25585,0,0,0,1.98389-1.98438.50026.50026,0,0,0-.87109-.49219,4.25458,4.25458,0,0,1-1.61328,1.61035A4.45117,4.45117,0,0,1,31.7876,16.79a4.24,4.24,0,0,1-1.606-1.60547.50026.50026,0,0,0-.87109.49219A5.24133,5.24133,0,0,0,31.28711,17.65625Z"></path><path d="M26.18262,17.48535a.49966.49966,0,1,0-.86523.5,10.02554,10.02554,0,0,0,17.36523,0,.49966.49966,0,1,0-.86523-.5,9.02689,9.02689,0,0,1-15.63477,0Z"></path><path d="M70.5332,94V92.28613l4.10156-4.93652a.49987.49987,0,0,0-.38477-.81934H66.49969a.70421.70421,0,0,0-.99939,0H57.75a.49987.49987,0,0,0-.38477.81934l4.10156,4.93652V94a.49971.49971,0,0,0,.5.5H70.0332A.49971.49971,0,0,0,70.5332,94Zm-1-1.89453V93.5H62.4668V92.10547a.50056.50056,0,0,0-.11523-.31934l-3.53613-4.25586H73.18457l-3.53613,4.25586A.50056.50056,0,0,0,69.5332,92.10547Z"></path><path d="M62.18164,84.81543a4.25458,4.25458,0,0,1,1.61328-1.61035A4.45117,4.45117,0,0,1,68.2124,83.21a4.24,4.24,0,0,1,1.606,1.60547.50182.50182,0,0,0,.436.25391.49984.49984,0,0,0,.43506-.74609,5.24133,5.24133,0,0,0-1.97656-1.97949,5.48648,5.48648,0,0,0-5.41846-.00488,5.25585,5.25585,0,0,0-1.98389,1.98438.50026.50026,0,0,0,.87109.49219Z"></path><path d="M74.68262,82.01465a10.06893,10.06893,0,0,0-3.668-3.66895,10.17662,10.17662,0,0,0-10.0293,0,10.06893,10.06893,0,0,0-3.668,3.66895.49966.49966,0,1,0,.86523.5,9.02689,9.02689,0,0,1,15.63477,0,.49966.49966,0,1,0,.86523-.5Z"></path><path d="M61.4668,6V7.71387l-4.10156,4.93652a.49987.49987,0,0,0,.38477.81934h7.75031a.7037.7037,0,0,0,.999,0H74.25a.49987.49987,0,0,0,.38477-.81934L70.5332,7.71387V6a.49971.49971,0,0,0-.5-.5H61.9668A.49971.49971,0,0,0,61.4668,6Zm1,1.89453V6.5H69.5332V7.89453a.50056.50056,0,0,0,.11523.31934l3.53613,4.25586H58.81543l3.53613-4.25586A.50056.50056,0,0,0,62.4668,7.89453Z"></path><path d="M63.28711,17.65625a5.38625,5.38625,0,0,0,5.41846.00488,5.25585,5.25585,0,0,0,1.98389-1.98438.50026.50026,0,0,0-.87109-.49219,4.25458,4.25458,0,0,1-1.61328,1.61035A4.45117,4.45117,0,0,1,63.7876,16.79a4.24,4.24,0,0,1-1.606-1.60547.50026.50026,0,0,0-.87109.49219A5.24133,5.24133,0,0,0,63.28711,17.65625Z"></path><path d="M74.50049,17.30273a.49806.49806,0,0,0-.68311.18262,9.02689,9.02689,0,0,1-15.63477,0,.49966.49966,0,1,0-.86523.5,10.02554,10.02554,0,0,0,17.36523,0A.49918.49918,0,0,0,74.50049,17.30273Z"></path><path d="M50,52.959a8.75,8.75,0,1,0-8.75-8.75A8.75967,8.75967,0,0,0,50,52.959Zm0-16.5a7.75,7.75,0,1,1-7.75,7.75A7.75868,7.75868,0,0,1,50,36.459Z"></path><path d="M67,64.041c0-4.90625-7.46729-8.75-17-8.75s-17,3.84375-17,8.75a.49971.49971,0,0,0,.5.5h33A.49971.49971,0,0,0,67,64.041Zm-32.96729-.5c.53418-4.041,7.4917-7.25,15.96729-7.25s15.43311,3.209,15.96729,7.25Z"></path></g></svg>