<svg xmlns="http://www.w3.org/2000/svg" data-name="Layer 1" viewBox="0 0 100 100" x="0px" y="0px"><title>Noun_Project_100Icon_10px_grid</title><path d="M50,41.79A20.71,20.71,0,1,0,70.71,62.5,20.71,20.71,0,0,0,50,41.79Zm0,37.66a17,17,0,1,1,17-17A17,17,0,0,1,50,79.45Zm0-9.18a7.78,7.78,0,1,1,7.77-7.77A7.77,7.77,0,0,1,50,70.27ZM69.62,19.52a2,2,0,1,0,2,2A2,2,0,0,0,69.62,19.52Zm0,3.38A1.38,1.38,0,1,1,71,21.53,1.37,1.37,0,0,1,69.62,22.9ZM73.2,12.07V10L73,8.58H27L26.8,10v2.09H18V90.54l.2.88H32l.6-.88H67.44l.6.88H81.8l.2-.88V12.07ZM22.57,89.17a3,3,0,1,1,3-3A3,3,0,0,1,22.57,89.17Zm0-9.21a3,3,0,1,1,3-3A3,3,0,0,1,22.57,80ZM58,12h5.82v1.6H58Zm-7.3,0H56.5v1.6H50.67Zm-7.13,0h5.82v1.6H43.54Zm-7.13,0h5.82v1.6H36.41Zm-1.67,4.11H65.26V33H34.74Zm.27,22a1.4,1.4,0,1,1-1.4,1.4A1.4,1.4,0,0,1,35,38.13Zm-5.15,0a1.4,1.4,0,1,1-1.39,1.4A1.4,1.4,0,0,1,29.86,38.13ZM65.35,77.85A21.72,21.72,0,1,1,71.71,62.5,21.57,21.57,0,0,1,65.35,77.85Zm4.27-53.72a2.6,2.6,0,1,1,2.6-2.6A2.6,2.6,0,0,1,69.62,24.13Z"></path></svg>